<svg width="32" height="32" viewBox="0 0 32 32" fill="none" xmlns="http://www.w3.org/2000/svg">
  <defs>
    <radialGradient id="paint0_radial_3173:26341" cx="0" cy="0" r="1" gradientUnits="userSpaceOnUse"
      gradientTransform="translate(16 16) rotate(90) scale(17.7561 28.4098)">
      <stop stop-color="#004D9B"></stop>
      <stop offset="1" stop-color="#002462"></stop>
    </radialGradient>
    <linearGradient id="paint1_linear_3173:26341" x1="-13.6766" y1="0.916464" x2="3.09852"
      y2="38.1376" gradientUnits="userSpaceOnUse">
      <stop stop-color="#33C3F5"></stop>
      <stop offset="1" stop-color="#2241EC"></stop>
      <stop offset="1" stop-color="#1D3CE7"></stop>
    </linearGradient>
  </defs>
  <path
    d="M0 12.0235C0 9.9151 0 8.86088 0.410328 8.05557C0.771263 7.34719 1.34719 6.77126 2.05557 6.41033C2.86088 6 3.9151 6 6.02353 6H25.9765C28.0849 6 29.1391 6 29.9444 6.41033C30.6528 6.77126 31.2287 7.34719 31.5897 8.05557C32 8.86088 32 9.9151 32 12.0235V19.9765C32 22.0849 32 23.1391 31.5897 23.9444C31.2287 24.6528 30.6528 25.2287 29.9444 25.5897C29.1391 26 28.0849 26 25.9765 26H6.02353C3.9151 26 2.86088 26 2.05557 25.5897C1.34719 25.2287 0.771263 24.6528 0.410328 23.9444C0 23.1391 0 22.0849 0 19.9765V12.0235Z"
    fill="url(#paint0_radial_3173:26341)"></path>
  <mask id="mask0_3173:26341" maskUnits="userSpaceOnUse" x="0" y="6" width="32" height="20"
    style="mask-type: alpha;">
    <rect y="6" width="32" height="20" fill="white"></rect>
  </mask>
  <g mask="url(#mask0_3173:26341)">
    <path fill-rule="evenodd" clip-rule="evenodd"
      d="M13.9036 10.25C12.9282 10.25 12.137 11.0445 12.137 12.0248C12.137 13.0043 12.9282 13.7997 13.9036 13.7997C14.879 13.7997 15.6711 13.0043 15.6711 12.0248C15.6711 11.0445 14.879 10.25 13.9036 10.25ZM13.9036 13.492C13.1553 13.492 12.5512 12.8835 12.5512 12.1341C12.5512 12.0047 12.5693 11.8811 12.6037 11.7613H15.2044C15.2388 11.8811 15.2579 12.0047 15.2579 12.1341C15.2579 12.8835 14.6518 13.492 13.9036 13.492ZM22.7325 10.25C21.7571 10.25 20.9649 11.0445 20.9649 12.0248C20.9649 13.0043 21.7571 13.7997 22.7325 13.7997C23.7088 13.7997 24.5 13.0043 24.5 12.0248C24.5 11.0445 23.7088 10.25 22.7325 10.25ZM22.7325 13.492C21.9852 13.492 21.3791 12.8835 21.3791 12.1341C21.3791 12.0047 21.3982 11.8811 21.4316 11.7613H24.0324C24.0667 11.8811 24.0858 12.0047 24.0858 12.1341C24.0858 12.8835 23.4807 13.492 22.7325 13.492ZM15.5169 15.2111C15.5169 14.7987 15.8213 14.4667 16.2785 14.4667C16.7146 14.4667 17.0391 14.7485 17.0391 15.2111V17.3838L19.5368 14.7485C19.6475 14.6275 19.8403 14.4667 20.1247 14.4667C20.5103 14.4667 20.8758 14.7589 20.8758 15.1912C20.8758 15.4523 20.7135 15.6642 20.3786 15.9962L18.4602 17.8671L20.8052 20.2905C21.0485 20.5326 21.2308 20.754 21.2308 21.0548C21.2308 21.5287 20.8558 21.75 20.4396 21.75C20.1457 21.75 19.9529 21.5788 19.6685 21.2771L17.0391 18.4602V21.0255C17.0391 21.418 16.7347 21.75 16.2785 21.75C15.8414 21.75 15.5169 21.4681 15.5169 21.0255V15.2111ZM9.29616 15.8669H8.19002C7.70233 15.8669 7.5 15.512 7.5 15.1668C7.5 14.8119 7.75387 14.4667 8.19002 14.4667H11.9255C12.3617 14.4667 12.6155 14.8119 12.6155 15.1668C12.6155 15.512 12.4123 15.8669 11.9255 15.8669H10.8194V20.9593C10.8194 21.4667 10.4949 21.75 10.0578 21.75C9.62066 21.75 9.29616 21.4667 9.29616 20.9593V15.8669ZM22.0067 15.2518C22.0067 14.7485 22.3322 14.4667 22.7684 14.4667C23.2045 14.4667 23.529 14.7485 23.529 15.2518V20.9659C23.529 21.4681 23.2045 21.75 22.7684 21.75C22.3322 21.75 22.0067 21.4681 22.0067 20.9659V15.2518ZM13.2263 15.2518C13.2263 14.7485 13.5508 14.4667 13.987 14.4667C14.4241 14.4667 14.7486 14.7485 14.7486 15.2518V20.9659C14.7486 21.4681 14.4241 21.75 13.987 21.75C13.5508 21.75 13.2263 21.4681 13.2263 20.9659V15.2518Z"
      fill="white"></path>
    <path fill-rule="evenodd" clip-rule="evenodd"
      d="M2.25 16C2.25 8.40608 8.40608 2.25 16 2.25C23.5939 2.25 29.75 8.40608 29.75 16C29.75 17.1313 29.6131 18.2459 29.3447 19.3257C27.8336 25.4072 22.3523 29.75 16 29.75C8.40608 29.75 2.25 23.5939 2.25 16ZM26.9052 16C26.9052 9.97724 22.0228 5.09483 16 5.09483C9.97724 5.09483 5.09483 9.97724 5.09483 16C5.09483 22.0228 9.97724 26.9052 16 26.9052C21.0378 26.9052 25.3861 23.46 26.5839 18.6397C26.7965 17.7838 26.9052 16.8996 26.9052 16Z"
      fill="url(#paint1_linear_3173:26341)"></path>
  </g>
</svg>
